# xmcd CD database file
#
# Track frame offsets:
#	150
#	33930
#	57550
#	73133
#	105535
#	145157
#	155399
#	198225
#
# Disc length: 3133 seconds
#
# Revision: 0
# Processed by: cddbd v1.5.1PL0 Copyright (c) Steve Scherf et al.
# Submitted via: CDex 1.51
#
DISCID=6d0c3b08
DTITLE=Perfumed Chambers - Late Wood
DYEAR=1900
DGENRE=Jazz
TTITLE0=Dodo
TTITLE1=mean argument
TTITLE2=Fancy á 3
TTITLE3=Hans Last's Nightmare
TTITLE4=9-8 Blues
TTITLE5=Brother Grime
TTITLE6=Ghorme Sabzi
TTITLE7=Dodo en Sol
EXTD=
EXTT0=
EXTT1=
EXTT2=
EXTT3=
EXTT4=
EXTT5=
EXTT6=
EXTT7=
PLAYORDER=
